<svg width="10" height="10" viewBox="0 0 10 10" fill="none" xmlns="http://www.w3.org/2000/svg">
<path fill-rule="evenodd" clip-rule="evenodd" d="M2.14645 2.14645C2.34171 1.95118 2.65829 1.95118 2.85355 2.14645L5 4.29289L7.14645 2.14645C7.34171 1.95118 7.65829 1.95118 7.85355 2.14645C8.04882 2.34171 8.04882 2.65829 7.85355 2.85355L5.70711 5L7.85355 7.14645C8.04882 7.34171 8.04882 7.65829 7.85355 7.85355C7.65829 8.04882 7.34171 8.04882 7.14645 7.85355L5 5.70711L2.85355 7.85355C2.65829 8.04882 2.34171 8.04882 2.14645 7.85355C1.95118 7.65829 1.95118 7.34171 2.14645 7.14645L4.29289 5L2.14645 2.85355C1.95118 2.65829 1.95118 2.34171 2.14645 2.14645Z" fill="#606774" stroke="#606774" stroke-linecap="round"/>
</svg>